<svg width="11" height="11" fill="none" xmlns="http://www.w3.org/2000/svg"><path d="M7.877 0H2.923A2.927 2.927 0 000 2.923v4.954A2.927 2.927 0 002.923 10.8h4.954A2.927 2.927 0 0010.8 7.877V2.923A2.927 2.927 0 007.877 0zM5.4 8.353A2.956 2.956 0 012.447 5.4 2.956 2.956 0 015.4 2.447 2.956 2.956 0 018.353 5.4 2.956 2.956 0 015.4 8.353zm3.024-5.21a.874.874 0 010-1.745.874.874 0 010 1.745z" fill="#373F41"/><path d="M5.399 3.08c-1.28 0-2.32 1.04-2.32 2.32 0 1.28 1.04 2.32 2.32 2.32 1.28 0 2.32-1.04 2.32-2.32 0-1.28-1.04-2.32-2.32-2.32zm3.027-1.05a.24.24 0 100 .48.24.24 0 000-.48z" fill="#373F41"/></svg>