<svg width="13" height="10" fill="none" xmlns="http://www.w3.org/2000/svg"><path fill-rule="evenodd" clip-rule="evenodd" d="M1.588.951S3.238 3.29 6.28 3.337c0 0-.26-2.027 1.486-2.648 0 0 1.485-.62 2.476.55 0-.001 1.156-.192 1.415-.55 0 0-.07.719-.872 1.242 0 0 .73-.001 1.25-.288 0 0-.73.924-1.046 1.067a.295.295 0 01-.016.007c-.306.12.33 2.195-1.58 4.652 0 0-1.447 1.98-4.151 2.361-1.1.155-2.712.287-4.34-.954 0 0 1.651.215 3.302-1.026 0 0-1.698-.143-2.099-1.574 0 0 .779 0 .944-.024 0 0-1.816-.62-1.792-2.374 0 0 .612.275.955.239 0 0-1.533-1.157-.625-3.066z" fill="#373F41"/></svg>