<svg width="36" height="43" fill="none" xmlns="http://www.w3.org/2000/svg"><path d="M9.726 29.179h15.916v10.186a2 2 0 01-2.812 1.827l-4.333-1.926a2 2 0 00-1.625 0l-4.333 1.926a2 2 0 01-2.813-1.827V29.179z" fill="#60C1F8"/><path d="M15.163 2.047a4 4 0 015.042 0L22.242 3.7a4 4 0 002.108.873l2.609.271a4 4 0 013.565 3.566l.271 2.609a4 4 0 00.873 2.108l1.654 2.036a4 4 0 010 5.042l-1.654 2.037a4 4 0 00-.873 2.108l-.27 2.609a4 4 0 01-3.566 3.565l-2.61.271a4 4 0 00-2.107.873l-2.037 1.654a4 4 0 01-5.042 0l-2.036-1.654a4 4 0 00-2.108-.873l-2.61-.27a4 4 0 01-3.565-3.566l-.27-2.61a4 4 0 00-.874-2.107l-1.653-2.037a4 4 0 010-5.042L3.7 13.127a4 4 0 00.873-2.108l.271-2.61A4 4 0 018.41 4.845l2.609-.27a4 4 0 002.108-.874l2.036-1.653z" fill="#FFBF00"/><circle cx="17.61" cy="17.61" r="10.111" stroke="#22355D"/><path d="M15.764 13.02c.76-1.36 2.713-1.36 3.472 0l.259.465a1.99 1.99 0 001.483 1.005l.383.049c1.61.207 2.215 2.229.984 3.29a1.9 1.9 0 00-.616 1.795c.305 1.573-1.29 2.868-2.74 2.193l-.652-.303a1.985 1.985 0 00-1.674 0l-.652.303c-1.45.675-3.045-.62-2.74-2.193a1.9 1.9 0 00-.616-1.795c-1.231-1.061-.627-3.083.984-3.29l.383-.05a1.989 1.989 0 001.483-1.004l.26-.464z" fill="#fff"/></svg>