<svg width="41" height="40" fill="none" xmlns="http://www.w3.org/2000/svg"><path d="M31.398 26.799a.92.92 0 00-.92-.92h-6.42c.137-3.321.978-6.69 1.794-9.957.918-3.677 1.867-7.48 1.867-11.323A4.605 4.605 0 0023.119 0H4.6A4.605 4.605 0 000 4.6c0 .507.412.92.92.92h6.42c-.137 3.32-.978 6.69-1.793 9.956-.918 3.677-1.868 7.48-1.868 11.323 0 2.536 2.064 4.6 4.6 4.6h18.52c2.536 0 4.6-2.064 4.6-4.6zm-29.4-23.12a2.764 2.764 0 012.601-1.84c1.2 0 2.223.77 2.602 1.84H1.997zM5.518 26.8c0-3.617.922-7.308 1.813-10.877.917-3.677 1.867-7.48 1.867-11.323 0-1.034-.344-1.99-.923-2.76H23.12a2.763 2.763 0 012.76 2.76c0 3.617-.921 7.308-1.812 10.877-.845 3.384-1.715 6.873-1.85 10.403H11.959a.92.92 0 00-.92.92 2.763 2.763 0 01-2.76 2.76A2.763 2.763 0 015.52 26.8zm21.28 2.76H11.955a4.58 4.58 0 00.83-1.84H29.4a2.764 2.764 0 01-2.601 1.84z" fill="#60C1F8"/><path d="M11.958 9.199h10.854a.92.92 0 000-1.84H11.958a.92.92 0 000 1.84zm-.863 3.679h10.98a.92.92 0 000-1.84h-10.98a.92.92 0 000 1.84zm-.862 3.68h10.932a.92.92 0 100-1.84H10.233a.92.92 0 100 1.84zm-.91 3.679h10.98a.92.92 0 000-1.84H9.323a.92.92 0 100 1.84z" fill="#22355D"/><circle cx="28.447" cy="27.621" r="9.727" transform="rotate(-60 28.447 27.62)" fill="#F8C301" stroke="#fff" stroke-width="2"/><path d="M28.887 22.663a4.777 4.777 0 00-4.778 4.78h-1.593l2.069 2.07.037.077 2.143-2.146h-1.593a3.719 3.719 0 113.718 3.718 3.703 3.703 0 01-2.627-1.091l-.751.751a4.75 4.75 0 003.375 1.402 4.781 4.781 0 100-9.56z" fill="#fff"/><path d="M28.359 25.32v2.655l2.273 1.35.383-.646-1.86-1.102v-2.258h-.796z" fill="#fff"/></svg>