<svg width="42" height="46" fill="none" xmlns="http://www.w3.org/2000/svg"><path d="M17.17 30.99h-1.723a2 2 0 01-2-2v-5.944a2 2 0 01.586-1.415l1.117-1.117a2 2 0 00.586-1.414v-2.605h1.907v1.526l2.02-2.019a2 2 0 012.828 0l5.629 5.63a2 2 0 01.586 1.414v5.945a2 2 0 01-2 2h-1.722a2 2 0 01-2-2v-.67a1.907 1.907 0 00-3.815 0v.67a2 2 0 01-2 2z" fill="#60C1F8"/><circle cx="21.077" cy="22.98" r="16.666" stroke="#22355D"/><circle cx="21.076" cy="5.815" r="4.815" fill="#F8C301" stroke="#fff" stroke-width="2"/><circle cx="35.942" cy="14.397" r="4.815" transform="rotate(60 35.942 14.397)" fill="#F8C301" stroke="#fff" stroke-width="2"/><circle cx="6.211" cy="14.397" r="4.815" transform="rotate(-60 6.21 14.397)" fill="#F8C301" stroke="#fff" stroke-width="2"/><circle cx="21.076" cy="40.145" r="4.815" fill="#F8C301" stroke="#fff" stroke-width="2"/><circle cx="6.211" cy="31.563" r="4.815" transform="rotate(60 6.211 31.563)" fill="#F8C301" stroke="#fff" stroke-width="2"/><circle cx="35.943" cy="31.563" r="4.815" transform="rotate(-60 35.943 31.563)" fill="#F8C301" stroke="#fff" stroke-width="2"/></svg>