<svg width="36" height="39" fill="none" xmlns="http://www.w3.org/2000/svg"><path fill-rule="evenodd" clip-rule="evenodd" d="M17.684 32.421c1.691 0 12.21-11.783 12.21-20.21C29.895 5.466 24.429 0 17.685 0 10.94 0 5.474 5.467 5.474 12.21c0 8.428 10.52 20.211 12.21 20.211zm0-14.737a5.895 5.895 0 100-11.79 5.895 5.895 0 000 11.79z" fill="#60C1F8"/><ellipse cx="17.684" cy="33.895" rx="2.526" ry=".211" fill="#F8C301"/><path fill-rule="evenodd" clip-rule="evenodd" d="M17.684 35.258c6.046 0 10.947-.848 10.947-1.894a.345.345 0 00-.015-.1c.284.165.436.34.436.52 0 1.047-5.09 1.895-11.368 1.895-6.279 0-11.368-.848-11.368-1.894 0-.181.152-.356.436-.522a.346.346 0 00-.015.1c0 1.047 4.901 1.895 10.947 1.895z" fill="#22355D"/><path fill-rule="evenodd" clip-rule="evenodd" d="M17.684 37.63c9.405 0 17.03-1.32 17.03-2.947a.536.536 0 00-.024-.157c.442.258.678.53.678.812 0 1.628-7.917 2.947-17.684 2.947C7.917 38.285 0 36.965 0 35.338c0-.282.237-.554.679-.812a.538.538 0 00-.024.157c0 1.628 7.624 2.947 17.03 2.947z" fill="#F8C301"/></svg>